<svg width="24" height="24" viewBox="0 0 20 20" class="octicon" xmlns="http://www.w3.org/2000/svg">
  <path d="M4.20195 12.6385C4.20195 13.7948 3.25733 14.7394 2.10098 14.7394C0.944626 14.7394 0 13.7948 0 12.6385C0 11.4821 0.944626 10.5375 2.10098 10.5375H4.20195V12.6385Z"/>
  <path d="M5.2605 12.6385C5.2605 11.4821 6.20512 10.5375 7.36148 10.5375C8.51783 10.5375 9.46245 11.4821 9.46245 12.6385V17.899C9.46245 19.0554 8.51783 20 7.36148 20C6.20512 20 5.2605 19.0554 5.2605 17.899V12.6385Z"/>
  <path d="M7.36148 4.20195C6.20512 4.20195 5.2605 3.25733 5.2605 2.10098C5.2605 0.944626 6.20512 0 7.36148 0C8.51783 0 9.46245 0.944626 9.46245 2.10098V4.20195H7.36148Z"/>
  <path d="M7.36156 5.26062C8.51792 5.26062 9.46254 6.20525 9.46254 7.3616C9.46254 8.51795 8.51792 9.46257 7.36156 9.46257H2.10098C0.944626 9.46257 0 8.51795 0 7.3616C0 6.20525 0.944626 5.26062 2.10098 5.26062H7.36156Z"/>
  <path d="M15.7981 7.3616C15.7981 6.20525 16.7427 5.26062 17.8991 5.26062C19.0554 5.26062 20 6.20525 20 7.3616C20 8.51795 19.0554 9.46257 17.8991 9.46257H15.7981V7.3616Z"/>
  <path d="M14.7393 7.36156C14.7393 8.51792 13.7947 9.46254 12.6383 9.46254C11.482 9.46254 10.5374 8.51792 10.5374 7.36156V2.10098C10.5374 0.944626 11.482 0 12.6383 0C13.7947 0 14.7393 0.944626 14.7393 2.10098V7.36156Z"/>
  <path d="M12.6383 15.7981C13.7947 15.7981 14.7393 16.7427 14.7393 17.8991C14.7393 19.0554 13.7947 20 12.6383 20C11.482 20 10.5374 19.0554 10.5374 17.8991V15.7981H12.6383Z"/>
  <path d="M12.6383 14.7394C11.482 14.7394 10.5374 13.7948 10.5374 12.6385C10.5374 11.4821 11.482 10.5375 12.6383 10.5375H17.8989C19.0553 10.5375 19.9999 11.4821 19.9999 12.6385C19.9999 13.7948 19.0553 14.7394 17.8989 14.7394H12.6383Z"/>
</svg>
