<?xml version="1.0" encoding="UTF-8"?>
<svg xmlns="http://www.w3.org/2000/svg" width="18" height="18" viewBox="0 0 27.2 32">
<title>Apple</title>
<path d="M26.63 24.94A17.38 17.38 0 0124.89 28a16.14 16.14 0 01-2.23 2.68A4.37 4.37 0 0119.78 32a7.23 7.23 0 01-2.65-.62 7.69 7.69 0 00-2.86-.63 8 8 0 00-2.94.63 7.91 7.91 0 01-2.54.62 4.12 4.12 0 01-2.94-1.29 16.94 16.94 0 01-2.34-2.77A19 19 0 011 23.07a17.75 17.75 0 01-1-5.81 10.58 10.58 0 011.4-5.54 8.34 8.34 0 012.95-3 8 8 0 014-1.11 9.46 9.46 0 013.08.71 10 10 0 002.44.71 14.7 14.7 0 002.7-.84 9 9 0 013.68-.64 7.79 7.79 0 016.11 3.19 6.74 6.74 0 00-3.61 6.12A6.76 6.76 0 0025 22a7.19 7.19 0 002.24 1.45c-.24.55-.41 1.01-.61 1.49zM20.4.64a6.78 6.78 0 01-1.77 4.48 6 6 0 01-5 2.44 4 4 0 010-.6 7 7 0 011.87-4.53 7.39 7.39 0 012.25-1.7A6.88 6.88 0 0120.36 0a4.68 4.68 0 010 .64z"></path>
</svg>